<svg width="120" height="1200" viewBox="0 0 120 1200" fill="none" xmlns="http://www.w3.org/2000/svg">
  <g opacity="0.96">
    <path d="M18 88C34 48 70 36 88 12C92 38 79 70 50 106C39 118 24 116 18 88Z" fill="#DFF8F1"/>
    <path d="M22 88C38 54 67 40 82 20C83 38 73 65 50 92C39 104 28 104 22 88Z" fill="#2A8E62"/>
    <path d="M28 92C42 67 64 54 75 36C75 49 67 65 52 84C43 95 34 98 28 92Z" fill="#1E6D49"/>
    <path d="M49 95C58 88 67 89 76 95" stroke="#F0B84B" stroke-width="2.2" stroke-linecap="round"/>
    <path d="M21 196C36 173 52 168 66 152" stroke="#44A579" stroke-width="3" stroke-linecap="round"/>
    <path d="M13 210C29 193 43 186 56 172" stroke="#9FDCC3" stroke-width="2.2" stroke-linecap="round"/>
    <path d="M14 246C27 238 41 238 55 246C43 252 27 252 14 246Z" fill="#EFFBF5"/>
    <path d="M10 284C18 266 34 257 50 257C35 268 28 284 10 284Z" fill="#D2F2E5"/>
    <path d="M24 328C44 308 69 309 91 328C67 338 45 338 24 328Z" fill="#EAF9F1"/>
    <path d="M27 328C45 313 67 314 85 328" stroke="#58AF87" stroke-width="2.2" stroke-linecap="round"/>
    <path d="M12 430C31 405 53 390 74 372C76 397 66 422 46 449C35 463 18 460 12 430Z" fill="#DDF7EE"/>
    <path d="M17 430C34 408 52 395 68 380C68 395 61 414 45 436C36 448 24 448 17 430Z" fill="#278659"/>
    <path d="M24 434C37 416 50 406 61 393C61 403 56 415 46 430C39 438 30 441 24 434Z" fill="#1C6A46"/>
    <path d="M47 438C55 432 63 432 71 438" stroke="#F0B84B" stroke-width="2" stroke-linecap="round"/>
    <path d="M16 545C34 525 52 516 71 498" stroke="#3C9B71" stroke-width="3" stroke-linecap="round"/>
    <path d="M8 565C23 552 35 544 47 531" stroke="#A8E0CA" stroke-width="2.2" stroke-linecap="round"/>
    <path d="M26 620C43 610 58 610 76 620C57 627 44 627 26 620Z" fill="#EAF9F1"/>
    <path d="M28 620C43 609 59 610 73 620" stroke="#57AE86" stroke-width="2.2" stroke-linecap="round"/>
    <path d="M11 706C24 699 36 698 50 706C37 711 24 711 11 706Z" fill="#EEF9F3"/>
    <path d="M16 758C27 735 46 725 63 708C66 728 58 752 42 773C33 785 20 783 16 758Z" fill="#D8F3E7"/>
    <path d="M20 758C31 738 45 730 58 715C58 727 54 742 42 759C35 768 25 769 20 758Z" fill="#2A8E62"/>
    <path d="M26 761C35 746 46 739 53 727C53 736 49 745 41 756C35 763 29 765 26 761Z" fill="#1F6F4B"/>
    <path d="M16 875C31 858 45 852 58 838" stroke="#4BA77D" stroke-width="3" stroke-linecap="round"/>
    <path d="M10 889C22 877 34 870 45 859" stroke="#ADE3CE" stroke-width="2.2" stroke-linecap="round"/>
    <path d="M19 980C39 960 62 961 84 980C60 989 39 989 19 980Z" fill="#E9F8F0"/>
    <path d="M22 980C39 965 60 966 79 980" stroke="#56AD85" stroke-width="2.2" stroke-linecap="round"/>
    <path d="M14 1096C31 1073 48 1060 67 1042C69 1062 63 1084 48 1103C39 1114 21 1113 14 1096Z" fill="#D9F4E8"/>
    <path d="M20 1096C34 1077 49 1066 62 1052C63 1064 57 1080 45 1096C37 1106 26 1106 20 1096Z" fill="#258457"/>
    <path d="M26 1099C37 1084 48 1076 57 1065C57 1074 53 1084 44 1095C37 1101 31 1103 26 1099Z" fill="#1F6A46"/>
    <path d="M46 1102C55 1095 63 1095 72 1102" stroke="#F0B84B" stroke-width="2" stroke-linecap="round"/>
  </g>
</svg>
